<?xml version="1.0" encoding="UTF-8"?>
<svg width="150px" height="150px" viewBox="0 0 150 150" version="1.1" xmlns="http://www.w3.org/2000/svg" xmlns:xlink="http://www.w3.org/1999/xlink">
    <!-- Generator: Sketch 50.2 (55047) - http://www.bohemiancoding.com/sketch -->
    <title>globant</title>
    <desc>Created with Sketch.</desc>
    <defs></defs>
    <g id="globant" stroke="none" stroke-width="1" fill="none" fill-rule="evenodd">
        <g id="7a30072fed9397fc31b80f2c040488f111097211" transform="translate(35.000000, 35.000000)" fill-rule="nonzero">
            <circle id="Oval-2" fill="#016D90" cx="40" cy="40" r="40"></circle>
            <g id="Mask" fill="#00A196">
                <circle id="path-1" cx="40" cy="40" r="40"></circle>
            </g>
            <polygon id="Star" fill="#FFDC81" points="79 82.950155 75.291796 85 76 80.658359 73 77.583592 77.145898 76.950155 79 73 80.854102 76.950155 85 77.583592 82 80.658359 82.708204 85"></polygon>
        </g>
        <g id="Group-3" transform="translate(50.000000, 51.000000)" fill-rule="nonzero">
            <g id="Group-2">
                <g id="cutlery">
                    <path d="M39.2563478,22.8440497 L22.3186603,39.6494114 L12.4294359,29.8374465 L42.50192,0 C46.6738,7.48125 45.3497681,16.7981378 39.2563478,22.8440497 Z" id="Shape" fill="#ACABAB"></path>
                    <path d="M36.8503937,20.4568921 L19.9128034,37.2622539 L12.429533,29.8374465 L41.5563909,0.938142123 C43.7891597,7.70490154 42.0680833,15.2799658 36.8503937,20.4568921 Z" id="Shape" fill="#EDE8E9"></path>
                    <path d="M18.8782548,36.2351134 L10.3146155,44.7319456 C8.67129759,43.5570527 7.18029339,42.1861515 5.875871,40.6531464 C5.2091468,39.868247 4.59047568,39.0405822 4.02597347,38.1750642 L12.4292417,29.8374465 L14.6029878,31.9942102 L18.8782548,36.2351134 Z" id="Shape" fill="#FFDC81"></path>
                    <path d="M14.6028907,31.9942102 L5.87577392,40.6531464 C5.20904972,39.868247 4.5903786,39.0405822 4.02587639,38.1750642 L12.4291446,29.8374465 L14.6028907,31.9942102 Z" id="Shape" fill="#D3B35F"></path>
                    <path d="M9.44878654,11.7402611 C8.92330924,11.2188891 8.92330924,10.373598 9.44878654,9.85222603 C9.97426383,9.33085402 10.8262108,9.33085402 11.3516881,9.85222603 L23.4349477,21.8411815 C23.960425,22.3625535 23.960425,23.2078446 23.4349477,23.7291203 C22.9094704,24.250396 22.0575235,24.2504923 21.5321432,23.7291203 L9.44878654,11.7402611 Z M19.2961709,25.9475278 C19.8216482,26.4688998 19.8216482,27.3140946 19.2961709,27.8354666 C18.7706936,28.3568386 17.9187466,28.3568386 17.3933664,27.8354666 L5.31000971,15.8467038 C4.78453241,15.3253318 4.78453241,14.4800407 5.31000971,13.958765 C5.835487,13.4374893 6.68743393,13.437393 7.21281415,13.958765 L19.2961709,25.9475278 Z M27.5736274,17.7347389 C28.0991047,18.2561109 28.0991047,19.1013057 27.5736274,19.6226777 C27.0481501,20.1440497 26.1962032,20.1440497 25.670823,19.6226777 L13.5874663,7.63391481 C13.061989,7.11254281 13.061989,6.26725171 13.5874663,5.74597603 C14.1129436,5.22470034 14.9648905,5.22460402 15.4902707,5.74597603 L27.5736274,17.7347389 Z M27.9522274,25.6661815 L31.8435552,21.8063142 C32.8873261,20.7697346 32.9565419,19.112286 32.0010139,17.9941246 L17.9587423,1.5635381 C17.940686,1.54263699 17.9226297,1.52173587 17.9026319,1.50189426 C16.8217776,0.306100171 14.9417862,0.248405394 13.787736,1.39343964 L0.923686765,14.1569884 C-0.230363499,15.3020227 -0.172214432,17.1682898 1.03299536,18.2406999 C1.05309028,18.2606378 1.07308812,18.2774936 1.09415381,18.2954088 L17.6549887,32.2278789 C18.7809837,33.1759418 20.4523568,33.1083262 21.4961277,32.0716503 L25.3874555,28.2107235 L40.6980369,43.4016909 C41.6144429,42.6177547 42.4726998,41.7662029 43.261838,40.8569563 L27.9522274,25.6661815 Z" id="Shape" fill="#FFDC81"></path>
                    <path d="M44.5383022,39.2613442 C43.0192428,41.3345997 41.1783734,43.1610873 39.0888901,44.6681828 L35.7390573,41.3445205 C34.234074,39.8512949 34.234074,37.4309075 35.7390573,35.9376819 C36.4920828,35.1905394 37.4777047,34.8165347 38.4642973,34.8174979 C39.4508899,34.8165347 40.4365117,35.1905394 41.1884694,35.9376819 L44.5383022,39.2613442 Z" id="Shape" fill="#D3B35F"></path>
                </g>
            </g>
        </g>
    </g>
</svg>